<svg width="528" height="20" viewBox="0 0 528 20" fill="none" xmlns="http://www.w3.org/2000/svg">
<path d="M10 18.3333C14.6024 18.3333 18.3334 14.6023 18.3334 9.99996C18.3334 5.39759 14.6024 1.66663 10 1.66663C5.39765 1.66663 1.66669 5.39759 1.66669 9.99996C1.66669 14.6023 5.39765 18.3333 10 18.3333Z" stroke="#DC2626" stroke-width="1.25"/>
<path d="M9.99335 12.5H10.0008" stroke="#DC2626" stroke-width="1.66667" stroke-linecap="round" stroke-linejoin="round"/>
<path d="M10 9.99996V6.66663" stroke="#DC2626" stroke-width="1.25" stroke-linecap="round" stroke-linejoin="round"/>
<path d="M26.352 5.242V15H25.078V5.242H26.352ZM32.2613 7.188C33.1946 7.188 33.9506 7.47267 34.5293 8.042C35.108 8.602 35.3973 9.414 35.3973 10.478V15H34.1373V10.66C34.1373 9.89467 33.946 9.31133 33.5633 8.91C33.1806 8.49933 32.658 8.294 31.9953 8.294C31.3233 8.294 30.7866 8.504 30.3853 8.924C29.9933 9.344 29.7973 9.95533 29.7973 10.758V15H28.5233V7.328H29.7973V8.42C30.0493 8.028 30.39 7.72467 30.8193 7.51C31.258 7.29533 31.7386 7.188 32.2613 7.188ZM40.1944 15.126C39.6064 15.126 39.0791 15.028 38.6124 14.832C38.1457 14.6267 37.7771 14.3467 37.5064 13.992C37.2357 13.628 37.0864 13.2127 37.0584 12.746H38.3744C38.4117 13.1287 38.5891 13.4413 38.9064 13.684C39.2331 13.9267 39.6577 14.048 40.1804 14.048C40.6657 14.048 41.0484 13.9407 41.3284 13.726C41.6084 13.5113 41.7484 13.2407 41.7484 12.914C41.7484 12.578 41.5991 12.3307 41.3004 12.172C41.0017 12.004 40.5397 11.8407 39.9144 11.682C39.3451 11.5327 38.8784 11.3833 38.5144 11.234C38.1597 11.0753 37.8517 10.8467 37.5904 10.548C37.3384 10.24 37.2124 9.83867 37.2124 9.344C37.2124 8.952 37.3291 8.59267 37.5624 8.266C37.7957 7.93933 38.1271 7.68267 38.5564 7.496C38.9857 7.3 39.4757 7.202 40.0264 7.202C40.8757 7.202 41.5617 7.41667 42.0844 7.846C42.6071 8.27533 42.8871 8.86333 42.9244 9.61H41.6504C41.6224 9.20867 41.4591 8.88667 41.1604 8.644C40.8711 8.40133 40.4791 8.28 39.9844 8.28C39.5271 8.28 39.1631 8.378 38.8924 8.574C38.6217 8.77 38.4864 9.02667 38.4864 9.344C38.4864 9.596 38.5657 9.806 38.7244 9.974C38.8924 10.1327 39.0977 10.2633 39.3404 10.366C39.5924 10.4593 39.9377 10.5667 40.3764 10.688C40.9271 10.8373 41.3751 10.9867 41.7204 11.136C42.0657 11.276 42.3597 11.4907 42.6024 11.78C42.8544 12.0693 42.9851 12.4473 42.9944 12.914C42.9944 13.334 42.8777 13.712 42.6444 14.048C42.4111 14.384 42.0797 14.65 41.6504 14.846C41.2304 15.0327 40.7451 15.126 40.1944 15.126ZM45.4508 6.082C45.2082 6.082 45.0028 5.998 44.8348 5.83C44.6668 5.662 44.5828 5.45667 44.5828 5.214C44.5828 4.97133 44.6668 4.766 44.8348 4.598C45.0028 4.43 45.2082 4.346 45.4508 4.346C45.6842 4.346 45.8802 4.43 46.0388 4.598C46.2068 4.766 46.2908 4.97133 46.2908 5.214C46.2908 5.45667 46.2068 5.662 46.0388 5.83C45.8802 5.998 45.6842 6.082 45.4508 6.082ZM46.0668 7.328V15H44.7928V7.328H46.0668ZM49.5122 8.574C49.7362 8.13533 50.0535 7.79467 50.4642 7.552C50.8842 7.30933 51.3928 7.188 51.9902 7.188V8.504H51.6542C50.2262 8.504 49.5122 9.27867 49.5122 10.828V15H48.2382V7.328H49.5122V8.574ZM52.9848 11.136C52.9848 10.352 53.1435 9.666 53.4608 9.078C53.7781 8.48067 54.2121 8.01867 54.7628 7.692C55.3228 7.36533 55.9435 7.202 56.6248 7.202C57.2968 7.202 57.8801 7.34667 58.3748 7.636C58.8695 7.92533 59.2381 8.28933 59.4808 8.728V7.328H60.7688V15H59.4808V13.572C59.2288 14.02 58.8508 14.3933 58.3468 14.692C57.8521 14.9813 57.2735 15.126 56.6108 15.126C55.9295 15.126 55.3135 14.958 54.7628 14.622C54.2121 14.286 53.7781 13.8147 53.4608 13.208C53.1435 12.6013 52.9848 11.9107 52.9848 11.136ZM59.4808 11.15C59.4808 10.5713 59.3641 10.0673 59.1308 9.638C58.8975 9.20867 58.5801 8.882 58.1788 8.658C57.7868 8.42467 57.3528 8.308 56.8768 8.308C56.4008 8.308 55.9668 8.42 55.5748 8.644C55.1828 8.868 54.8701 9.19467 54.6368 9.624C54.4035 10.0533 54.2868 10.5573 54.2868 11.136C54.2868 11.724 54.4035 12.2373 54.6368 12.676C54.8701 13.1053 55.1828 13.4367 55.5748 13.67C55.9668 13.894 56.4008 14.006 56.8768 14.006C57.3528 14.006 57.7868 13.894 58.1788 13.67C58.5801 13.4367 58.8975 13.1053 59.1308 12.676C59.3641 12.2373 59.4808 11.7287 59.4808 11.15ZM73.4582 7.328V15H72.1842V13.866C71.9415 14.258 71.6008 14.566 71.1622 14.79C70.7328 15.0047 70.2568 15.112 69.7342 15.112C69.1368 15.112 68.6002 14.9907 68.1242 14.748C67.6482 14.496 67.2702 14.1227 66.9902 13.628C66.7195 13.1333 66.5842 12.5313 66.5842 11.822V7.328H67.8442V11.654C67.8442 12.41 68.0355 12.9933 68.4182 13.404C68.8008 13.8053 69.3235 14.006 69.9862 14.006C70.6675 14.006 71.2042 13.796 71.5962 13.376C71.9882 12.956 72.1842 12.3447 72.1842 11.542V7.328H73.4582ZM84.8353 7.188C85.4326 7.188 85.9646 7.314 86.4313 7.566C86.8979 7.80867 87.2666 8.17733 87.5373 8.672C87.8079 9.16667 87.9433 9.76867 87.9433 10.478V15H86.6833V10.66C86.6833 9.89467 86.4919 9.31133 86.1093 8.91C85.7359 8.49933 85.2273 8.294 84.5833 8.294C83.9206 8.294 83.3933 8.50867 83.0013 8.938C82.6093 9.358 82.4133 9.96933 82.4133 10.772V15H81.1533V10.66C81.1533 9.89467 80.9619 9.31133 80.5793 8.91C80.2059 8.49933 79.6973 8.294 79.0533 8.294C78.3906 8.294 77.8633 8.50867 77.4713 8.938C77.0793 9.358 76.8833 9.96933 76.8833 10.772V15H75.6093V7.328H76.8833V8.434C77.1353 8.03267 77.4713 7.72467 77.8913 7.51C78.3206 7.29533 78.7919 7.188 79.3053 7.188C79.9493 7.188 80.5186 7.33267 81.0133 7.622C81.5079 7.91133 81.8766 8.336 82.1193 8.896C82.3339 8.35467 82.6886 7.93467 83.1833 7.636C83.6779 7.33733 84.2286 7.188 84.8353 7.188ZM100.766 10.87C100.766 11.1127 100.752 11.3693 100.724 11.64H94.5915C94.6382 12.396 94.8948 12.9887 95.3615 13.418C95.8375 13.838 96.4115 14.048 97.0835 14.048C97.6342 14.048 98.0915 13.922 98.4555 13.67C98.8288 13.4087 99.0902 13.0633 99.2395 12.634H100.612C100.406 13.3713 99.9955 13.9733 99.3795 14.44C98.7635 14.8973 97.9982 15.126 97.0835 15.126C96.3555 15.126 95.7022 14.9627 95.1235 14.636C94.5542 14.3093 94.1062 13.8473 93.7795 13.25C93.4528 12.6433 93.2895 11.9433 93.2895 11.15C93.2895 10.3567 93.4482 9.66133 93.7655 9.064C94.0828 8.46667 94.5262 8.00933 95.0955 7.692C95.6742 7.36533 96.3368 7.202 97.0835 7.202C97.8115 7.202 98.4555 7.36067 99.0155 7.678C99.5755 7.99533 100.005 8.434 100.304 8.994C100.612 9.54467 100.766 10.17 100.766 10.87ZM99.4495 10.604C99.4495 10.1187 99.3422 9.70333 99.1275 9.358C98.9128 9.00333 98.6188 8.73733 98.2455 8.56C97.8815 8.37333 97.4755 8.28 97.0275 8.28C96.3835 8.28 95.8328 8.48533 95.3755 8.896C94.9275 9.30667 94.6708 9.876 94.6055 10.604H99.4495ZM107.767 9.33V10.408H102.181V9.33H107.767ZM119.384 7.188C119.981 7.188 120.513 7.314 120.98 7.566C121.447 7.80867 121.815 8.17733 122.086 8.672C122.357 9.16667 122.492 9.76867 122.492 10.478V15H121.232V10.66C121.232 9.89467 121.041 9.31133 120.658 8.91C120.285 8.49933 119.776 8.294 119.132 8.294C118.469 8.294 117.942 8.50867 117.55 8.938C117.158 9.358 116.962 9.96933 116.962 10.772V15H115.702V10.66C115.702 9.89467 115.511 9.31133 115.128 8.91C114.755 8.49933 114.246 8.294 113.602 8.294C112.939 8.294 112.412 8.50867 112.02 8.938C111.628 9.358 111.432 9.96933 111.432 10.772V15H110.158V7.328H111.432V8.434C111.684 8.03267 112.02 7.72467 112.44 7.51C112.869 7.29533 113.341 7.188 113.854 7.188C114.498 7.188 115.067 7.33267 115.562 7.622C116.057 7.91133 116.425 8.336 116.668 8.896C116.883 8.35467 117.237 7.93467 117.732 7.636C118.227 7.33733 118.777 7.188 119.384 7.188ZM124.106 11.136C124.106 10.352 124.265 9.666 124.582 9.078C124.899 8.48067 125.333 8.01867 125.884 7.692C126.444 7.36533 127.065 7.202 127.746 7.202C128.418 7.202 129.001 7.34667 129.496 7.636C129.991 7.92533 130.359 8.28933 130.602 8.728V7.328H131.89V15H130.602V13.572C130.35 14.02 129.972 14.3933 129.468 14.692C128.973 14.9813 128.395 15.126 127.732 15.126C127.051 15.126 126.435 14.958 125.884 14.622C125.333 14.286 124.899 13.8147 124.582 13.208C124.265 12.6013 124.106 11.9107 124.106 11.136ZM130.602 11.15C130.602 10.5713 130.485 10.0673 130.252 9.638C130.019 9.20867 129.701 8.882 129.3 8.658C128.908 8.42467 128.474 8.308 127.998 8.308C127.522 8.308 127.088 8.42 126.696 8.644C126.304 8.868 125.991 9.19467 125.758 9.624C125.525 10.0533 125.408 10.5573 125.408 11.136C125.408 11.724 125.525 12.2373 125.758 12.676C125.991 13.1053 126.304 13.4367 126.696 13.67C127.088 13.894 127.522 14.006 127.998 14.006C128.474 14.006 128.908 13.894 129.3 13.67C129.701 13.4367 130.019 13.1053 130.252 12.676C130.485 12.2373 130.602 11.7287 130.602 11.15ZM134.701 6.082C134.458 6.082 134.253 5.998 134.085 5.83C133.917 5.662 133.833 5.45667 133.833 5.214C133.833 4.97133 133.917 4.766 134.085 4.598C134.253 4.43 134.458 4.346 134.701 4.346C134.934 4.346 135.13 4.43 135.289 4.598C135.457 4.766 135.541 4.97133 135.541 5.214C135.541 5.45667 135.457 5.662 135.289 5.83C135.13 5.998 134.934 6.082 134.701 6.082ZM135.317 7.328V15H134.043V7.328H135.317ZM138.762 4.64V15H137.488V4.64H138.762ZM147.522 13.824L149.902 7.328H151.26L148.25 15H146.766L143.756 7.328H145.128L147.522 13.824ZM152.038 11.136C152.038 10.352 152.196 9.666 152.514 9.078C152.831 8.48067 153.265 8.01867 153.816 7.692C154.376 7.36533 154.996 7.202 155.678 7.202C156.35 7.202 156.933 7.34667 157.428 7.636C157.922 7.92533 158.291 8.28933 158.534 8.728V7.328H159.822V15H158.534V13.572C158.282 14.02 157.904 14.3933 157.4 14.692C156.905 14.9813 156.326 15.126 155.664 15.126C154.982 15.126 154.366 14.958 153.816 14.622C153.265 14.286 152.831 13.8147 152.514 13.208C152.196 12.6013 152.038 11.9107 152.038 11.136ZM158.534 11.15C158.534 10.5713 158.417 10.0673 158.184 9.638C157.95 9.20867 157.633 8.882 157.232 8.658C156.84 8.42467 156.406 8.308 155.93 8.308C155.454 8.308 155.02 8.42 154.628 8.644C154.236 8.868 153.923 9.19467 153.69 9.624C153.456 10.0533 153.34 10.5573 153.34 11.136C153.34 11.724 153.456 12.2373 153.69 12.676C153.923 13.1053 154.236 13.4367 154.628 13.67C155.02 13.894 155.454 14.006 155.93 14.006C156.406 14.006 156.84 13.894 157.232 13.67C157.633 13.4367 157.95 13.1053 158.184 12.676C158.417 12.2373 158.534 11.7287 158.534 11.15ZM157.54 5.158L154.558 6.754V5.802L157.54 4.052V5.158ZM163.248 4.64V15H161.974V4.64H163.248ZM166.078 6.082C165.835 6.082 165.63 5.998 165.462 5.83C165.294 5.662 165.21 5.45667 165.21 5.214C165.21 4.97133 165.294 4.766 165.462 4.598C165.63 4.43 165.835 4.346 166.078 4.346C166.311 4.346 166.507 4.43 166.666 4.598C166.834 4.766 166.918 4.97133 166.918 5.214C166.918 5.45667 166.834 5.662 166.666 5.83C166.507 5.998 166.311 6.082 166.078 6.082ZM166.694 7.328V15H165.42V7.328H166.694ZM168.389 11.136C168.389 10.352 168.548 9.666 168.865 9.078C169.182 8.48067 169.616 8.01867 170.167 7.692C170.727 7.36533 171.352 7.202 172.043 7.202C172.64 7.202 173.196 7.342 173.709 7.622C174.222 7.89267 174.614 8.252 174.885 8.7V4.64H176.173V15H174.885V13.558C174.633 14.0153 174.26 14.3933 173.765 14.692C173.27 14.9813 172.692 15.126 172.029 15.126C171.348 15.126 170.727 14.958 170.167 14.622C169.616 14.286 169.182 13.8147 168.865 13.208C168.548 12.6013 168.389 11.9107 168.389 11.136ZM174.885 11.15C174.885 10.5713 174.768 10.0673 174.535 9.638C174.302 9.20867 173.984 8.882 173.583 8.658C173.191 8.42467 172.757 8.308 172.281 8.308C171.805 8.308 171.371 8.42 170.979 8.644C170.587 8.868 170.274 9.19467 170.041 9.624C169.808 10.0533 169.691 10.5573 169.691 11.136C169.691 11.724 169.808 12.2373 170.041 12.676C170.274 13.1053 170.587 13.4367 170.979 13.67C171.371 13.894 171.805 14.006 172.281 14.006C172.757 14.006 173.191 13.894 173.583 13.67C173.984 13.4367 174.302 13.1053 174.535 12.676C174.768 12.2373 174.885 11.7287 174.885 11.15ZM181.672 15.126C180.953 15.126 180.3 14.9627 179.712 14.636C179.133 14.3093 178.676 13.8473 178.34 13.25C178.013 12.6433 177.85 11.9433 177.85 11.15C177.85 10.366 178.018 9.67533 178.354 9.078C178.699 8.47133 179.166 8.00933 179.754 7.692C180.342 7.36533 181 7.202 181.728 7.202C182.456 7.202 183.114 7.36533 183.702 7.692C184.29 8.00933 184.752 8.46667 185.088 9.064C185.433 9.66133 185.606 10.3567 185.606 11.15C185.606 11.9433 185.429 12.6433 185.074 13.25C184.729 13.8473 184.257 14.3093 183.66 14.636C183.063 14.9627 182.4 15.126 181.672 15.126ZM181.672 14.006C182.129 14.006 182.559 13.8987 182.96 13.684C183.361 13.4693 183.683 13.1473 183.926 12.718C184.178 12.2887 184.304 11.766 184.304 11.15C184.304 10.534 184.183 10.0113 183.94 9.582C183.697 9.15267 183.38 8.83533 182.988 8.63C182.596 8.41533 182.171 8.308 181.714 8.308C181.247 8.308 180.818 8.41533 180.426 8.63C180.043 8.83533 179.735 9.15267 179.502 9.582C179.269 10.0113 179.152 10.534 179.152 11.15C179.152 11.7753 179.264 12.3027 179.488 12.732C179.721 13.1613 180.029 13.4833 180.412 13.698C180.795 13.9033 181.215 14.006 181.672 14.006Z" fill="#DC2626"/>
</svg>
